<?xml version="1.0" encoding="UTF-8"?>
<svg xmlns="http://www.w3.org/2000/svg" xmlns:xlink="http://www.w3.org/1999/xlink" width="378.38pt" height="378.37pt" viewBox="0 0 378.38 378.37" version="1.1">
<defs>
<clipPath id="clip1">
  <path d="M 0 0 L 378.378906 0 L 378.378906 378.371094 L 0 378.371094 Z M 0 0 "/>
</clipPath>
</defs>
<g id="surface1">
<g clip-path="url(#clip1)" clip-rule="nonzero">
<path style=" stroke:none;fill-rule:evenodd;fill:rgb(15.299988%,32.899475%,59.599304%);fill-opacity:1;" d="M 378.375 189.183594 C 378.375 293.667969 293.671875 378.371094 189.1875 378.371094 C 84.699219 378.371094 0 293.667969 0 189.183594 C 0 84.695313 84.699219 -0.00390625 189.1875 -0.00390625 C 293.671875 -0.00390625 378.375 84.695313 378.375 189.183594 "/>
</g>
<path style=" stroke:none;fill-rule:evenodd;fill:rgb(100%,100%,100%);fill-opacity:1;" d="M 159.539063 246.28125 C 159.539063 228.574219 159.472656 210.871094 159.605469 193.167969 C 159.628906 190.183594 158.785156 189.25 155.800781 189.371094 C 150.28125 189.59375 144.75 189.347656 139.226563 189.476563 C 136.988281 189.53125 136.164063 188.910156 136.191406 186.542969 C 136.300781 175.496094 136.289063 164.445313 136.203125 153.394531 C 136.183594 151.269531 136.820313 150.570313 138.972656 150.617188 C 144.617188 150.75 150.277344 150.460938 155.917969 150.738281 C 159.183594 150.898438 159.859375 149.738281 159.792969 146.707031 C 159.597656 138.300781 159.597656 129.878906 159.78125 121.472656 C 160.003906 111.203125 162.761719 101.613281 168.878906 93.265625 C 176.617188 82.691406 187.621094 77.855469 200.320313 77.289063 C 213.359375 76.710938 226.429688 77.03125 239.484375 76.894531 C 241.304688 76.871094 241.847656 77.523438 241.839844 79.292969 C 241.78125 90.464844 241.769531 101.640625 241.847656 112.816406 C 241.867188 114.804688 241.21875 115.410156 239.265625 115.378906 C 232.988281 115.28125 226.707031 115.328125 220.433594 115.347656 C 212.074219 115.371094 207.074219 119.671875 206.550781 127.945313 C 206.128906 134.574219 206.4375 141.246094 206.28125 147.898438 C 206.226563 150.269531 207.632813 150.105469 209.199219 150.105469 C 218.742188 150.089844 228.285156 150.199219 237.828125 150.035156 C 240.628906 149.988281 241.554688 150.632813 241.234375 153.578125 C 240.03125 164.683594 239 175.804688 238.050781 186.933594 C 237.832031 189.445313 236.6875 189.925781 234.429688 189.886719 C 226.902344 189.769531 219.367188 189.804688 211.835938 189.855469 C 206.425781 189.886719 206.949219 189.0625 206.949219 194.578125 C 206.925781 229.234375 206.878906 263.890625 207.027344 298.542969 C 207.039063 302.203125 206.105469 303.113281 202.484375 303.046875 C 189.554688 302.808594 176.617188 302.796875 163.6875 303.054688 C 160.042969 303.125 159.445313 301.890625 159.472656 298.640625 C 159.609375 281.1875 159.539063 263.734375 159.539063 246.28125 "/>
</g>
</svg>
