<?xml version="1.0" ?><svg height="16" shape-rendering="crispEdges" version="1.1" width="16" xmlns="http://www.w3.org/2000/svg"><rect fill="#D677A2" height="1" width="1" x="2" y="0"/><rect fill="#D36DA9" height="1" width="1" x="3" y="0"/><rect fill="#D065AF" height="1" width="1" x="4" y="0"/><rect fill="#CD5CB5" height="1" width="1" x="5" y="0"/><rect fill="#CA52BC" height="1" width="1" x="6" y="0"/><rect fill="#C74AC3" height="1" width="1" x="7" y="0"/><rect fill="#C441CA" height="1" width="1" x="8" y="0"/><rect fill="#C138D0" height="1" width="1" x="9" y="0"/><rect fill="#C138D0" height="1" width="1" x="10" y="0"/><rect fill="#C138D0" height="1" width="1" x="11" y="0"/><rect fill="#C138D0" height="1" width="1" x="12" y="0"/><rect fill="#C138D0" height="1" width="1" x="13" y="0"/><rect fill="#DC8895" height="1" width="1" x="1" y="1"/><rect fill="#D26789" height="1" width="1" x="2" y="1"/><rect fill="#CF5D91" height="1" width="1" x="3" y="1"/><rect fill="#CB5299" height="1" width="1" x="4" y="1"/><rect fill="#C848A0" height="1" width="1" x="5" y="1"/><rect fill="#C43DA8" height="1" width="1" x="6" y="1"/><rect fill="#C032B0" height="1" width="1" x="7" y="1"/><rect fill="#BD28B8" height="1" width="1" x="8" y="1"/><rect fill="#B91DC0" height="1" width="1" x="9" y="1"/><rect fill="#B613C8" height="1" width="1" x="10" y="1"/><rect fill="#B613C8" height="1" width="1" x="11" y="1"/><rect fill="#B613C8" height="1" width="1" x="12" y="1"/><rect fill="#B613C8" height="1" width="1" x="13" y="1"/><rect fill="#B613C8" height="1" width="1" x="14" y="1"/><rect fill="#E29A87" height="1" width="1" x="0" y="2"/><rect fill="#DA7D79" height="1" width="1" x="1" y="2"/><rect fill="#D67281" height="1" width="1" x="2" y="2"/><rect fill="#D26789" height="1" width="1" x="3" y="2"/><rect fill="#FFFFFF" height="1" width="1" x="4" y="2"/><rect fill="#FFFFFF" height="1" width="1" x="5" y="2"/><rect fill="#FFFFFF" height="1" width="1" x="6" y="2"/><rect fill="#FFFFFF" height="1" width="1" x="7" y="2"/><rect fill="#FFFFFF" height="1" width="1" x="8" y="2"/><rect fill="#FFFFFF" height="1" width="1" x="9" y="2"/><rect fill="#FFFFFF" height="1" width="1" x="10" y="2"/><rect fill="#FFFFFF" height="1" width="1" x="11" y="2"/><rect fill="#B613C8" height="1" width="1" x="12" y="2"/><rect fill="#B613C8" height="1" width="1" x="13" y="2"/><rect fill="#B613C8" height="1" width="1" x="14" y="2"/><rect fill="#9910A8" height="1" width="1" x="15" y="2"/><rect fill="#E5A381" height="1" width="1" x="0" y="3"/><rect fill="#DD8771" height="1" width="1" x="1" y="3"/><rect fill="#DA7D79" height="1" width="1" x="2" y="3"/><rect fill="#FFFFFF" height="1" width="1" x="3" y="3"/><rect fill="#D26789" height="1" width="1" x="4" y="3"/><rect fill="#CF5D91" height="1" width="1" x="5" y="3"/><rect fill="#CB5299" height="1" width="1" x="6" y="3"/><rect fill="#C848A0" height="1" width="1" x="7" y="3"/><rect fill="#C43DA8" height="1" width="1" x="8" y="3"/><rect fill="#C032B0" height="1" width="1" x="9" y="3"/><rect fill="#BD28B8" height="1" width="1" x="10" y="3"/><rect fill="#B91DC0" height="1" width="1" x="11" y="3"/><rect fill="#FFFFFF" height="1" width="1" x="12" y="3"/><rect fill="#B613C8" height="1" width="1" x="13" y="3"/><rect fill="#B613C8" height="1" width="1" x="14" y="3"/><rect fill="#9910A8" height="1" width="1" x="15" y="3"/><rect fill="#E8AB7B" height="1" width="1" x="0" y="4"/><rect fill="#E19269" height="1" width="1" x="1" y="4"/><rect fill="#FFFFFF" height="1" width="1" x="2" y="4"/><rect fill="#DA7D79" height="1" width="1" x="3" y="4"/><rect fill="#D67281" height="1" width="1" x="4" y="4"/><rect fill="#D26789" height="1" width="1" x="5" y="4"/><rect fill="#CF5D91" height="1" width="1" x="6" y="4"/><rect fill="#CB5299" height="1" width="1" x="7" y="4"/><rect fill="#C848A0" height="1" width="1" x="8" y="4"/><rect fill="#C43DA8" height="1" width="1" x="9" y="4"/><rect fill="#C032B0" height="1" width="1" x="10" y="4"/><rect fill="#BD28B8" height="1" width="1" x="11" y="4"/><rect fill="#B91DC0" height="1" width="1" x="12" y="4"/><rect fill="#FFFFFF" height="1" width="1" x="13" y="4"/><rect fill="#B613C8" height="1" width="1" x="14" y="4"/><rect fill="#9910A8" height="1" width="1" x="15" y="4"/><rect fill="#EBB574" height="1" width="1" x="0" y="5"/><rect fill="#E49C62" height="1" width="1" x="1" y="5"/><rect fill="#FFFFFF" height="1" width="1" x="2" y="5"/><rect fill="#DD8771" height="1" width="1" x="3" y="5"/><rect fill="#DA7D79" height="1" width="1" x="4" y="5"/><rect fill="#D67281" height="1" width="1" x="5" y="5"/><rect fill="#D26789" height="1" width="1" x="6" y="5"/><rect fill="#FFFFFF" height="1" width="1" x="7" y="5"/><rect fill="#FFFFFF" height="1" width="1" x="8" y="5"/><rect fill="#C848A0" height="1" width="1" x="9" y="5"/><rect fill="#FFFFFF" height="1" width="1" x="10" y="5"/><rect fill="#C032B0" height="1" width="1" x="11" y="5"/><rect fill="#BD28B8" height="1" width="1" x="12" y="5"/><rect fill="#FFFFFF" height="1" width="1" x="13" y="5"/><rect fill="#B613C8" height="1" width="1" x="14" y="5"/><rect fill="#9910A8" height="1" width="1" x="15" y="5"/><rect fill="#EFBE6D" height="1" width="1" x="0" y="6"/><rect fill="#E8A75A" height="1" width="1" x="1" y="6"/><rect fill="#FFFFFF" height="1" width="1" x="2" y="6"/><rect fill="#E19269" height="1" width="1" x="3" y="6"/><rect fill="#DD8771" height="1" width="1" x="4" y="6"/><rect fill="#DA7D79" height="1" width="1" x="5" y="6"/><rect fill="#FFFFFF" height="1" width="1" x="6" y="6"/><rect fill="#D26789" height="1" width="1" x="7" y="6"/><rect fill="#CF5D91" height="1" width="1" x="8" y="6"/><rect fill="#FFFFFF" height="1" width="1" x="9" y="6"/><rect fill="#C848A0" height="1" width="1" x="10" y="6"/><rect fill="#C43DA8" height="1" width="1" x="11" y="6"/><rect fill="#C032B0" height="1" width="1" x="12" y="6"/><rect fill="#FFFFFF" height="1" width="1" x="13" y="6"/><rect fill="#B91DC0" height="1" width="1" x="14" y="6"/><rect fill="#9910A8" height="1" width="1" x="15" y="6"/><rect fill="#F1C667" height="1" width="1" x="0" y="7"/><rect fill="#ECB252" height="1" width="1" x="1" y="7"/><rect fill="#FFFFFF" height="1" width="1" x="2" y="7"/><rect fill="#E49C62" height="1" width="1" x="3" y="7"/><rect fill="#E19269" height="1" width="1" x="4" y="7"/><rect fill="#FFFFFF" height="1" width="1" x="5" y="7"/><rect fill="#DA7D79" height="1" width="1" x="6" y="7"/><rect fill="#D67281" height="1" width="1" x="7" y="7"/><rect fill="#D26789" height="1" width="1" x="8" y="7"/><rect fill="#CF5D91" height="1" width="1" x="9" y="7"/><rect fill="#FFFFFF" height="1" width="1" x="10" y="7"/><rect fill="#C848A0" height="1" width="1" x="11" y="7"/><rect fill="#C43DA8" height="1" width="1" x="12" y="7"/><rect fill="#FFFFFF" height="1" width="1" x="13" y="7"/><rect fill="#BD28B8" height="1" width="1" x="14" y="7"/><rect fill="#9C19A2" height="1" width="1" x="15" y="7"/><rect fill="#F4D060" height="1" width="1" x="0" y="8"/><rect fill="#EFBC4A" height="1" width="1" x="1" y="8"/><rect fill="#FFFFFF" height="1" width="1" x="2" y="8"/><rect fill="#E8A75A" height="1" width="1" x="3" y="8"/><rect fill="#E49C62" height="1" width="1" x="4" y="8"/><rect fill="#FFFFFF" height="1" width="1" x="5" y="8"/><rect fill="#DD8771" height="1" width="1" x="6" y="8"/><rect fill="#DA7D79" height="1" width="1" x="7" y="8"/><rect fill="#D67281" height="1" width="1" x="8" y="8"/><rect fill="#D26789" height="1" width="1" x="9" y="8"/><rect fill="#FFFFFF" height="1" width="1" x="10" y="8"/><rect fill="#CB5299" height="1" width="1" x="11" y="8"/><rect fill="#C848A0" height="1" width="1" x="12" y="8"/><rect fill="#FFFFFF" height="1" width="1" x="13" y="8"/><rect fill="#C032B0" height="1" width="1" x="14" y="8"/><rect fill="#9F229B" height="1" width="1" x="15" y="8"/><rect fill="#F8D95A" height="1" width="1" x="0" y="9"/><rect fill="#F3C742" height="1" width="1" x="1" y="9"/><rect fill="#FFFFFF" height="1" width="1" x="2" y="9"/><rect fill="#ECB252" height="1" width="1" x="3" y="9"/><rect fill="#E8A75A" height="1" width="1" x="4" y="9"/><rect fill="#E49C62" height="1" width="1" x="5" y="9"/><rect fill="#FFFFFF" height="1" width="1" x="6" y="9"/><rect fill="#DD8771" height="1" width="1" x="7" y="9"/><rect fill="#DA7D79" height="1" width="1" x="8" y="9"/><rect fill="#FFFFFF" height="1" width="1" x="9" y="9"/><rect fill="#D26789" height="1" width="1" x="10" y="9"/><rect fill="#CF5D91" height="1" width="1" x="11" y="9"/><rect fill="#CB5299" height="1" width="1" x="12" y="9"/><rect fill="#FFFFFF" height="1" width="1" x="13" y="9"/><rect fill="#C43DA8" height="1" width="1" x="14" y="9"/><rect fill="#A22A94" height="1" width="1" x="15" y="9"/><rect fill="#F8D95A" height="1" width="1" x="0" y="10"/><rect fill="#F7D23A" height="1" width="1" x="1" y="10"/><rect fill="#FFFFFF" height="1" width="1" x="2" y="10"/><rect fill="#EFBC4A" height="1" width="1" x="3" y="10"/><rect fill="#ECB252" height="1" width="1" x="4" y="10"/><rect fill="#E8A75A" height="1" width="1" x="5" y="10"/><rect fill="#E49C62" height="1" width="1" x="6" y="10"/><rect fill="#FFFFFF" height="1" width="1" x="7" y="10"/><rect fill="#FFFFFF" height="1" width="1" x="8" y="10"/><rect fill="#DA7D79" height="1" width="1" x="9" y="10"/><rect fill="#D67281" height="1" width="1" x="10" y="10"/><rect fill="#D26789" height="1" width="1" x="11" y="10"/><rect fill="#CF5D91" height="1" width="1" x="12" y="10"/><rect fill="#FFFFFF" height="1" width="1" x="13" y="10"/><rect fill="#C848A0" height="1" width="1" x="14" y="10"/><rect fill="#A5348D" height="1" width="1" x="15" y="10"/><rect fill="#F8D95A" height="1" width="1" x="0" y="11"/><rect fill="#F7D23B" height="1" width="1" x="1" y="11"/><rect fill="#FFFFFF" height="1" width="1" x="2" y="11"/><rect fill="#F3C742" height="1" width="1" x="3" y="11"/><rect fill="#EFBC4A" height="1" width="1" x="4" y="11"/><rect fill="#ECB252" height="1" width="1" x="5" y="11"/><rect fill="#E8A75A" height="1" width="1" x="6" y="11"/><rect fill="#E49C62" height="1" width="1" x="7" y="11"/><rect fill="#E19269" height="1" width="1" x="8" y="11"/><rect fill="#DD8771" height="1" width="1" x="9" y="11"/><rect fill="#DA7D79" height="1" width="1" x="10" y="11"/><rect fill="#D67281" height="1" width="1" x="11" y="11"/><rect fill="#D26789" height="1" width="1" x="12" y="11"/><rect fill="#FFFFFF" height="1" width="1" x="13" y="11"/><rect fill="#CB5299" height="1" width="1" x="14" y="11"/><rect fill="#A83D87" height="1" width="1" x="15" y="11"/><rect fill="#F8D95A" height="1" width="1" x="0" y="12"/><rect fill="#F7D23B" height="1" width="1" x="1" y="12"/><rect fill="#F7D23B" height="1" width="1" x="2" y="12"/><rect fill="#FFFFFF" height="1" width="1" x="3" y="12"/><rect fill="#F3C742" height="1" width="1" x="4" y="12"/><rect fill="#EFBC4A" height="1" width="1" x="5" y="12"/><rect fill="#ECB252" height="1" width="1" x="6" y="12"/><rect fill="#E8A75A" height="1" width="1" x="7" y="12"/><rect fill="#E49C62" height="1" width="1" x="8" y="12"/><rect fill="#E19269" height="1" width="1" x="9" y="12"/><rect fill="#DD8771" height="1" width="1" x="10" y="12"/><rect fill="#DA7D79" height="1" width="1" x="11" y="12"/><rect fill="#FFFFFF" height="1" width="1" x="12" y="12"/><rect fill="#D26789" height="1" width="1" x="13" y="12"/><rect fill="#CF5D91" height="1" width="1" x="14" y="12"/><rect fill="#AB4581" height="1" width="1" x="15" y="12"/><rect fill="#F8D95A" height="1" width="1" x="0" y="13"/><rect fill="#F7D23B" height="1" width="1" x="1" y="13"/><rect fill="#F7D23B" height="1" width="1" x="2" y="13"/><rect fill="#F7D23B" height="1" width="1" x="3" y="13"/><rect fill="#FFFFFF" height="1" width="1" x="4" y="13"/><rect fill="#FFFFFF" height="1" width="1" x="5" y="13"/><rect fill="#FFFFFF" height="1" width="1" x="6" y="13"/><rect fill="#FFFFFF" height="1" width="1" x="7" y="13"/><rect fill="#FFFFFF" height="1" width="1" x="8" y="13"/><rect fill="#FFFFFF" height="1" width="1" x="9" y="13"/><rect fill="#FFFFFF" height="1" width="1" x="10" y="13"/><rect fill="#FFFFFF" height="1" width="1" x="11" y="13"/><rect fill="#DA7D79" height="1" width="1" x="12" y="13"/><rect fill="#D67281" height="1" width="1" x="13" y="13"/><rect fill="#D26789" height="1" width="1" x="14" y="13"/><rect fill="#AE4F7A" height="1" width="1" x="15" y="13"/><rect fill="#F7D23B" height="1" width="1" x="1" y="14"/><rect fill="#F7D23B" height="1" width="1" x="2" y="14"/><rect fill="#F7D23B" height="1" width="1" x="3" y="14"/><rect fill="#F7D23B" height="1" width="1" x="4" y="14"/><rect fill="#F7D23A" height="1" width="1" x="5" y="14"/><rect fill="#F3C742" height="1" width="1" x="6" y="14"/><rect fill="#EFBC4A" height="1" width="1" x="7" y="14"/><rect fill="#ECB252" height="1" width="1" x="8" y="14"/><rect fill="#E8A75A" height="1" width="1" x="9" y="14"/><rect fill="#E49C62" height="1" width="1" x="10" y="14"/><rect fill="#E19269" height="1" width="1" x="11" y="14"/><rect fill="#DD8771" height="1" width="1" x="12" y="14"/><rect fill="#DA7D79" height="1" width="1" x="13" y="14"/><rect fill="#B4606D" height="1" width="1" x="14" y="14"/><rect fill="#D0B132" height="1" width="1" x="2" y="15"/><rect fill="#D0B132" height="1" width="1" x="3" y="15"/><rect fill="#D0B132" height="1" width="1" x="4" y="15"/><rect fill="#D0B132" height="1" width="1" x="5" y="15"/><rect fill="#D0B132" height="1" width="1" x="6" y="15"/><rect fill="#CCA838" height="1" width="1" x="7" y="15"/><rect fill="#C99E3F" height="1" width="1" x="8" y="15"/><rect fill="#C79645" height="1" width="1" x="9" y="15"/><rect fill="#C38D4C" height="1" width="1" x="10" y="15"/><rect fill="#C08353" height="1" width="1" x="11" y="15"/><rect fill="#BD7B59" height="1" width="1" x="12" y="15"/><rect fill="#BA725F" height="1" width="1" x="13" y="15"/></svg>