<?xml version="1.0" ?><svg height="500" id="svg2" version="1.1" width="500" xmlns="http://www.w3.org/2000/svg" xmlns:cc="http://creativecommons.org/ns#" xmlns:dc="http://purl.org/dc/elements/1.1/" xmlns:inkscape="http://www.inkscape.org/namespaces/inkscape" xmlns:rdf="http://www.w3.org/1999/02/22-rdf-syntax-ns#" xmlns:sodipodi="http://sodipodi.sourceforge.net/DTD/sodipodi-0.dtd" xmlns:svg="http://www.w3.org/2000/svg"><defs id="defs4"/><g id="layer1" transform="translate(0,-552.36218)"><path d="m 0,552.36215 0,500.00005 500,0 0,-500.00005 z" id="rect2989-1" style="fill:#49c8f5;fill-opacity:1;stroke:none"/><path d="M 500,295.73427 500,500 253.54828,500 149.2295,395.68121 192.21309,71.221815 299.38396,178.39269 370.12621,165.86048 z" id="path3023" style="fill:#000000;stroke:none;stroke-width:1px;stroke-linecap:butt;stroke-linejoin:miter;stroke-opacity:1;opacity:0.3" transform="translate(0,552.36218)"/><path d="M 160.90625 60 C 141.36539 60 125.47064 68.034394 118.78125 87.96875 C 110.00635 114.15963 112.35857 144.8247 112.46875 172.09375 C 112.50018 177.27213 112.51548 182.4934 112.53125 187.6875 C 112.59429 205.55209 112.98386 223.5176 113.0625 241.46875 C 113.1098 260.78925 113.125 280.10149 113.125 299.40625 C 113.125 407.58532 211.42506 438.25 230.28125 438.25 C 249.13744 438.25 323.02772 440 336.375 440 C 349.72228 440 388 436.45423 388 397.71875 C 388 358.98331 360.86802 345.09375 342.53125 345.09375 L 269.15625 345.09375 C 216.97122 345.09375 208.65625 321.99978 208.65625 300.59375 C 208.65625 290.43377 209.30791 273.67298 209.9375 253.15625 L 332.46875 253.15625 C 350.80553 253.15625 385.8125 245.67421 385.8125 212.125 C 385.8125 178.5994 369.61085 156.59375 347.96875 156.59375 L 211.4375 156.59375 C 211.29583 108.20986 208.16475 60 160.90625 60 z " id="rect2989" style="fill:#ffffff;fill-opacity:1;stroke:none" transform="translate(0,552.36218)"/><g id="layer1-9" transform="translate(-549.00515,80.294372)"/><g id="layer1-6" transform="translate(-575.71429,39.999999)"/><g id="layer1-60" transform="matrix(0.99791782,0,0,0.99791782,471.52945,-9.2148018)"/></g></svg>